<svg width="91" height="86" viewBox="0 0 91 86" fill="none" xmlns="http://www.w3.org/2000/svg">
<path d="M20.304 25.8125L7.271 48.4275H19.791L32.824 25.8125H20.304Z" fill="black"/>
<path d="M61.8862 24.615L54.3942 11.615L48.5652 1.50195L42.3052 12.365L55.6252 35.478L61.8862 24.615Z" fill="black"/>
<path d="M41.0059 13.1152H0.297852L13.0939 35.3202L19.4369 24.3132L34.5578 24.3232L41.5489 36.2302H54.3269L41.0059 13.1152Z" fill="black"/>
<path d="M41.0059 11.615L47.2678 0.75H6.55985L0.297852 11.615H41.0059Z" fill="black"/>
<path d="M33.0868 49.1767L40.2488 36.9797L34.1278 26.5547L21.0898 49.1777L41.4438 84.4977L54.2398 62.2927H40.7868L33.0868 49.1767Z" fill="black"/>
<path d="M7.271 49.9277L27.626 85.2497H40.146L19.786 49.9277H7.271Z" fill="black"/>
<path d="M35.2671 49.9277L41.6461 60.7927H68.4821L62.2211 49.9277H35.2671Z" fill="black"/>
<path d="M69.7799 60.0422L90.1349 24.7222L83.8789 13.8672L63.5239 49.1872L69.7799 60.0422Z" fill="black"/>
<path d="M56.0591 37.7302H41.5491L35.2681 48.4282H62.2211L82.5811 13.1152H56.9891L63.6161 24.6152L56.0591 37.7302Z" fill="black"/>
</svg>
