<svg width="223" height="46" viewBox="0 0 223 46" fill="none" xmlns="http://www.w3.org/2000/svg">
<path d="M12.216 17.96C13.5813 17.96 14.8507 18.0987 16.024 18.376C17.2187 18.6533 18.2427 18.984 19.096 19.368C19.9707 19.752 20.5893 20.0933 20.952 20.392L18.744 23.912C18.3173 23.528 17.5493 23.1013 16.44 22.632C15.3307 22.1413 14.0933 21.896 12.728 21.896C11.2347 21.896 9.96533 22.1947 8.92 22.792C7.87467 23.368 7.352 24.2107 7.352 25.32C7.352 26.4293 7.88533 27.3147 8.952 27.976C10.04 28.616 11.4907 29.1493 13.304 29.576C14.7547 29.9173 16.1093 30.376 17.368 30.952C18.648 31.528 19.6827 32.328 20.472 33.352C21.2613 34.3547 21.656 35.6987 21.656 37.384C21.656 38.92 21.336 40.232 20.696 41.32C20.056 42.3867 19.192 43.2507 18.104 43.912C17.016 44.552 15.8 45.0213 14.456 45.32C13.112 45.6187 11.7467 45.768 10.36 45.768C8.73867 45.768 7.27733 45.5973 5.976 45.256C4.67467 44.936 3.576 44.552 2.68 44.104C1.80533 43.6347 1.16533 43.2293 0.76 42.888L2.968 38.92C3.52267 39.4533 4.42933 40.0187 5.688 40.616C6.968 41.2133 8.41867 41.512 10.04 41.512C11.832 41.512 13.2827 41.1387 14.392 40.392C15.5013 39.624 16.056 38.632 16.056 37.416C16.056 36.4987 15.7893 35.7627 15.256 35.208C14.7227 34.6533 14.008 34.2053 13.112 33.864C12.216 33.5227 11.2347 33.224 10.168 32.968C9.144 32.7333 8.14133 32.424 7.16 32.04C6.2 31.656 5.31467 31.1653 4.504 30.568C3.71467 29.9493 3.08533 29.2027 2.616 28.328C2.14667 27.432 1.912 26.3867 1.912 25.192C1.912 23.6773 2.392 22.3867 3.352 21.32C4.312 20.232 5.57067 19.4 7.128 18.824C8.68533 18.248 10.3813 17.96 12.216 17.96ZM42.99 17.96C44.718 17.96 46.3927 18.3227 48.014 19.048C49.6567 19.7733 51.0007 20.9253 52.046 22.504C53.1127 24.0613 53.646 26.0987 53.646 28.616V45H48.014V29.704C48.014 27.1013 47.4167 25.2133 46.222 24.04C45.0487 22.8453 43.502 22.248 41.582 22.248C40.302 22.248 39.0753 22.6107 37.902 23.336C36.7287 24.04 35.758 25.0213 34.99 26.28C34.2433 27.5173 33.87 28.9253 33.87 30.504V45H28.238V0.967999H33.87V23.4C34.062 22.6747 34.574 21.8853 35.406 21.032C36.2593 20.1787 37.3473 19.4533 38.67 18.856C39.9927 18.2587 41.4327 17.96 42.99 17.96ZM73.3325 45.768C70.6232 45.768 68.2125 45.16 66.1005 43.944C64.0098 42.728 62.3672 41.0853 61.1725 39.016C59.9778 36.9253 59.3805 34.568 59.3805 31.944C59.3805 29.32 59.9778 26.952 61.1725 24.84C62.3672 22.728 64.0098 21.0533 66.1005 19.816C68.2125 18.5787 70.6232 17.96 73.3325 17.96C76.0205 17.96 78.3992 18.5787 80.4685 19.816C82.5592 21.0533 84.1912 22.728 85.3645 24.84C86.5378 26.952 87.1245 29.32 87.1245 31.944C87.1245 34.568 86.5378 36.9253 85.3645 39.016C84.1912 41.0853 82.5592 42.728 80.4685 43.944C78.3992 45.16 76.0205 45.768 73.3325 45.768ZM73.3325 41C75.0392 41 76.5218 40.6053 77.7805 39.816C79.0605 39.0267 80.0525 37.9493 80.7565 36.584C81.4605 35.1973 81.8125 33.64 81.8125 31.912C81.8125 30.184 81.4605 28.6267 80.7565 27.24C80.0525 25.8533 79.0605 24.7547 77.7805 23.944C76.5218 23.1333 75.0392 22.728 73.3325 22.728C71.6045 22.728 70.1005 23.1333 68.8205 23.944C67.5405 24.7547 66.5378 25.8533 65.8125 27.24C65.1085 28.6267 64.7565 30.184 64.7565 31.912C64.7565 33.64 65.1085 35.1973 65.8125 36.584C66.5378 37.9493 67.5405 39.0267 68.8205 39.816C70.1005 40.6053 71.6045 41 73.3325 41ZM98.7695 45H93.2335V18.728H98.7695V23.272H98.6095C98.7162 22.7173 99.1108 22.024 99.7935 21.192C100.476 20.36 101.415 19.6133 102.61 18.952C103.804 18.2907 105.234 17.96 106.898 17.96C108.114 17.96 109.18 18.1307 110.098 18.472C111.036 18.792 111.698 19.112 112.082 19.432L109.81 24.04C109.511 23.7413 108.988 23.4427 108.242 23.144C107.495 22.824 106.567 22.664 105.458 22.664C104.05 22.664 102.844 23.1013 101.842 23.976C100.839 24.8507 100.071 25.9067 99.5375 27.144C99.0255 28.36 98.7695 29.4907 98.7695 30.536V45ZM113.808 18.728H118.96V7.944H124.496V18.728H131.248V23.496H124.496V36.488C124.496 38.024 124.762 39.1547 125.296 39.88C125.85 40.6053 126.586 40.968 127.504 40.968C128.314 40.968 128.944 40.8187 129.392 40.52C129.84 40.2213 130.106 40.0187 130.192 39.912L132.4 44.008C132.272 44.1147 131.93 44.3173 131.376 44.616C130.821 44.9147 130.106 45.1813 129.232 45.416C128.357 45.6507 127.333 45.768 126.16 45.768C124.112 45.768 122.394 45.1493 121.008 43.912C119.642 42.6533 118.96 40.6693 118.96 37.96V23.496H113.808V18.728ZM143.027 45H137.427V0.967999H143.027V45ZM151.656 45V18.728H157.224V45H151.656ZM154.504 9.736C153.501 9.736 152.637 9.384 151.911 8.68C151.208 7.95466 150.856 7.09067 150.856 6.088C150.856 5.08533 151.208 4.22133 151.911 3.496C152.637 2.77066 153.501 2.408 154.504 2.408C155.165 2.408 155.773 2.57866 156.328 2.92C156.904 3.26133 157.362 3.70933 157.704 4.264C158.045 4.79733 158.216 5.40533 158.216 6.088C158.216 7.09067 157.853 7.95466 157.128 8.68C156.402 9.384 155.528 9.736 154.504 9.736ZM175.591 17.96C176.956 17.96 178.226 18.0987 179.399 18.376C180.594 18.6533 181.618 18.984 182.471 19.368C183.346 19.752 183.964 20.0933 184.327 20.392L182.119 23.912C181.692 23.528 180.924 23.1013 179.815 22.632C178.706 22.1413 177.468 21.896 176.103 21.896C174.61 21.896 173.34 22.1947 172.295 22.792C171.25 23.368 170.727 24.2107 170.727 25.32C170.727 26.4293 171.26 27.3147 172.327 27.976C173.415 28.616 174.866 29.1493 176.679 29.576C178.13 29.9173 179.484 30.376 180.743 30.952C182.023 31.528 183.058 32.328 183.847 33.352C184.636 34.3547 185.031 35.6987 185.031 37.384C185.031 38.92 184.711 40.232 184.071 41.32C183.431 42.3867 182.567 43.2507 181.479 43.912C180.391 44.552 179.175 45.0213 177.831 45.32C176.487 45.6187 175.122 45.768 173.735 45.768C172.114 45.768 170.652 45.5973 169.351 45.256C168.05 44.936 166.951 44.552 166.055 44.104C165.18 43.6347 164.54 43.2293 164.135 42.888L166.343 38.92C166.898 39.4533 167.804 40.0187 169.063 40.616C170.343 41.2133 171.794 41.512 173.415 41.512C175.207 41.512 176.658 41.1387 177.767 40.392C178.876 39.624 179.431 38.632 179.431 37.416C179.431 36.4987 179.164 35.7627 178.631 35.208C178.098 34.6533 177.383 34.2053 176.487 33.864C175.591 33.5227 174.61 33.224 173.543 32.968C172.519 32.7333 171.516 32.424 170.535 32.04C169.575 31.656 168.69 31.1653 167.879 30.568C167.09 29.9493 166.46 29.2027 165.991 28.328C165.522 27.432 165.287 26.3867 165.287 25.192C165.287 23.6773 165.767 22.3867 166.727 21.32C167.687 20.232 168.946 19.4 170.503 18.824C172.06 18.248 173.756 17.96 175.591 17.96ZM188.808 18.728H193.96V7.944H199.496V18.728H206.248V23.496H199.496V36.488C199.496 38.024 199.762 39.1547 200.296 39.88C200.85 40.6053 201.586 40.968 202.504 40.968C203.314 40.968 203.944 40.8187 204.392 40.52C204.84 40.2213 205.106 40.0187 205.192 39.912L207.4 44.008C207.272 44.1147 206.93 44.3173 206.376 44.616C205.821 44.9147 205.106 45.1813 204.232 45.416C203.357 45.6507 202.333 45.768 201.16 45.768C199.112 45.768 197.394 45.1493 196.008 43.912C194.642 42.6533 193.96 40.6693 193.96 37.96V23.496H188.808V18.728ZM218.187 45.768C217.014 45.768 216 45.352 215.147 44.52C214.315 43.6667 213.899 42.6533 213.899 41.48C213.899 40.264 214.315 39.24 215.147 38.408C216 37.5547 217.014 37.128 218.187 37.128C219.403 37.128 220.427 37.5547 221.259 38.408C222.091 39.24 222.507 40.264 222.507 41.48C222.507 42.6533 222.091 43.6667 221.259 44.52C220.427 45.352 219.403 45.768 218.187 45.768Z" fill="white"/>
</svg>
