<svg xmlns="http://www.w3.org/2000/svg" version="1.1" viewBox="-5.0 -10.0 110.0 135.0">
 <path d="m87.5 62.5h-0.15625c-0.9375-2.0312-2.1875-3.9062-3.75-5.4688-3.5938-3.5938-8.2812-5.4688-13.281-5.4688h-12.656c-0.78125-3.5938-3.9062-6.25-7.6562-6.25s-6.875 2.6562-7.6562 6.25h-12.656c-5.7812 0-11.094-3.125-13.75-8.2812 2.6562-1.25 4.375-3.9062 4.375-7.0312s-1.875-5.9375-4.6875-7.1875c0.78125-1.5625 1.7188-2.9688 2.9688-4.2188 2.9688-2.9688 6.875-4.5312 11.094-4.5312h12.656c0.78125 3.5938 3.9062 6.25 7.6562 6.25s6.875-2.6562 7.6562-6.25h9.6875c0.78125 7.0312 6.7188 12.5 13.906 12.5 7.8125 0 14.062-6.25 14.062-14.062s-6.25-14.062-14.062-14.062c-7.1875 0-13.125 5.4688-13.906 12.5h-9.6875c-0.78125-3.5938-3.9062-6.25-7.6562-6.25s-6.875 2.6562-7.6562 6.25h-12.656c-5 0-9.6875 1.875-13.281 5.4688-1.7188 1.7188-2.9688 3.75-3.9062 5.7812-4.375 0-7.8125 3.4375-7.8125 7.8125s3.4375 7.8125 7.8125 7.8125h0.3125c3.125 6.4062 9.6875 10.625 16.875 10.625h12.656c0.78125 3.5938 3.9062 6.25 7.6562 6.25s6.875-2.6562 7.6562-6.25h12.656c4.2188 0 8.125 1.5625 11.094 4.5312 1.0938 1.0938 2.1875 2.5 2.8125 3.9062-2.6562 1.4062-4.5312 4.0625-4.5312 7.1875s1.875 5.7812 4.5312 7.0312c-2.6562 5.1562-7.9688 8.5938-13.906 8.5938h-12.656c-0.78125-3.5938-3.9062-6.25-7.6562-6.25s-6.875 2.6562-7.6562 6.25h-22.188c-0.78125-3.5938-3.9062-6.25-7.6562-6.25-4.375 0-7.8125 3.4375-7.8125 7.8125s3.4375 7.8125 7.8125 7.8125c3.75 0 6.875-2.6562 7.6562-6.25h22.188c0.78125 3.5938 3.9062 6.25 7.6562 6.25s6.875-2.6562 7.6562-6.25h12.656c7.3438 0 14.062-4.375 17.031-10.938h0.15625c4.375 0 7.8125-3.4375 7.8125-7.8125s-3.4375-7.8125-7.8125-7.8125zm-11.875-45c0.78125-0.46875 1.7188-0.3125 2.1875 0.46875l1.875 2.8125 5-7.5c0.46875-0.78125 1.4062-0.9375 2.1875-0.46875s0.9375 1.4062 0.46875 2.1875l-6.25 9.375c-0.46875 0.3125-0.9375 0.625-1.4062 0.625s-0.9375-0.3125-1.25-0.625l-3.125-4.6875c-0.46875-0.78125-0.3125-1.7188 0.3125-2.1875zm-25.625-3.4375c2.6562 0 4.6875 2.0312 4.6875 4.6875s-2.0312 4.6875-4.6875 4.6875-4.6875-2.0312-4.6875-4.6875 2.0312-4.6875 4.6875-4.6875zm0 43.75c-2.6562 0-4.6875-2.0312-4.6875-4.6875s2.0312-4.6875 4.6875-4.6875 4.6875 2.0312 4.6875 4.6875-2.0312 4.6875-4.6875 4.6875zm0 34.375c-2.6562 0-4.6875-2.0312-4.6875-4.6875s2.0312-4.6875 4.6875-4.6875 4.6875 2.0312 4.6875 4.6875-2.0312 4.6875-4.6875 4.6875z"/>
<text x="0.0" y="117.5" font-size="5.0" font-weight="bold" font-family="Arbeit Regular, Helvetica, Arial-Unicode, Arial, Sans-serif" fill="#000000">Created by Cahya Kurniawan</text><text x="0.0" y="122.5" font-size="5.0" font-weight="bold" font-family="Arbeit Regular, Helvetica, Arial-Unicode, Arial, Sans-serif" fill="#000000">from Noun Project</text></svg>